<svg width="25" height="24" viewBox="0 0 25 24" fill="none" xmlns="http://www.w3.org/2000/svg">
<path d="M10.7229 1.8541C11.3216 0.0114799 13.9284 0.0114799 14.5271 1.8541L15.9646 6.27837C16.2324 7.10242 17.0003 7.66034 17.8668 7.66034H22.5187C24.4562 7.66034 25.2617 10.1396 23.6943 11.2784L19.9308 14.0127C19.2298 14.522 18.9365 15.4247 19.2042 16.2488L20.6418 20.6731C21.2405 22.5157 19.1315 24.0479 17.5641 22.9091L13.8006 20.1748C13.0996 19.6655 12.1504 19.6655 11.4494 20.1748L7.68592 22.9091C6.11849 24.0479 4.00953 22.5157 4.60824 20.6731L6.04577 16.2488C6.31352 15.4247 6.0202 14.522 5.31923 14.0127L1.55572 11.2784C-0.0117102 10.1396 0.79384 7.66034 2.73129 7.66034H7.38324C8.24969 7.66034 9.01761 7.10242 9.28535 6.27837L10.7229 1.8541Z" fill="#E7D53A"/>
</svg>
